<?xml version="1.0"?>
<!DOCTYPE svg PUBLIC "-//W3C//DTD SVG 1.1//EN" "http://www.w3.org/Graphics/SVG/1.1/DTD/svg11.dtd">
<svg viewBox="0 0 1024 1024" version="1.1" xmlns="http://www.w3.org/2000/svg" width="200" height="200">
    <path d="
            M512 64C264 64 64 264 64 512s200 448 448 448 448-200 448-448S759 64 512 64z
            M129 544h127c2 57 10 111 24 161H179c-27-48-45-102-50-161z
            M544 257V133C588 148 627 192 655 257H544z
            m134 64c13 47 22 101 24 159H544V321h134z
            M480 133V257H368C396 192 435 148 480 133z
            M480 321v159H320c2-57 11-111 24-159H480z
            M256 480H129c4-57 22-111 49-159H280c-13 48-21 102-23 159z
            m64 64H480v161H345c-13-48-22-102-25-161z
            M480 769v121C436 876 397 831 369 769H480z
            m64 121V769h110C626 831 587 876 544 890z
            M544 705V544h159c-2 58-11 112-25 161H544z
            m223-161h127c-4 58-22 112-50 161H743c13-49 21-103 24-161z
            m0-64c-2-56-10-110-23-159h101c27 47 44 101 49 159H767z
            m31-223h-76c-14-35-30-66-49-93 48 22 91 54 126 93z
            m-447-93c-19 26-35 58-49 93h-76c35-39 78-71 126-93z
            M226 769h75c13 34 30 65 49 91-47-21-90-53-124-91z
            m445 91c18-26 35-57 49-91h75c-34 38-77 69-124 91z
            " />
</svg>